<?xml version="1.0" encoding="utf-8"?>
<!-- Generator: Adobe Illustrator 21.1.0, SVG Export Plug-In . SVG Version: 6.00 Build 0)  -->
<svg version="1.1" id="圖層_1" xmlns="http://www.w3.org/2000/svg" xmlns:xlink="http://www.w3.org/1999/xlink" x="0px" y="0px"
	 viewBox="0 0 184.3 286" style="enable-background:new 0 0 184.3 286;" xml:space="preserve">
<style type="text/css">
	.st0{fill:#996600;}
	.st1{fill:#003366;}
</style>
<g>
	<g>
		<path class="st0" d="M143.3,285.9l-33.5-55.7c0,0-1-1.3-1-3.4v-1.3v-2.8v-99.1H96.1V227v3.2c1,1.1,22.1,36.9,22.1,36.9H66.1
			c0,0,21-35.8,22.1-36.9V227V123.6H75.5v99.2v2.8v1.3c0,2.1-1,3.4-1,3.4L41,286L143.3,285.9L143.3,285.9z"/>
	</g>
	<g>
		<path class="st0" d="M132.9,51.2c0,0,6.3-26-16.1-43.1c0,0-9-8.1-26-8.1C75.5,0,66.6,8.1,66.6,8.1C45.8,22.6,51.2,51.2,51.2,51.2
			H132.9z"/>
		<path class="st0" d="M53.7,58.5h76.8c0.6-1.5,1.1-2.9,1.6-4.5h-80C52.6,55.5,53.1,57,53.7,58.5z"/>
		<path class="st0" d="M129.3,61.1H55c0.7,1.6,1.7,3,2.6,4.5h69.3C127.7,64.2,128.6,62.7,129.3,61.1z"/>
		<path class="st0" d="M62.5,72h59.2c1.1-1.1,2.1-2.3,3.1-3.6H59.4C60.4,69.6,61.4,70.8,62.5,72z"/>
		<path class="st0" d="M68.9,77.3h46.4c1.2-0.8,2.4-1.7,3.5-2.7H65.4C66.5,75.5,67.7,76.5,68.9,77.3z"/>
		<path class="st0" d="M75.3,80.9c5.1,2.3,10.8,3.6,16.8,3.6s11.6-1.3,16.8-3.6H75.3z"/>
	</g>
	<path class="st1" d="M171.8,86.4H109c0,0-5.9,0-10.5,3.2c-3.6,2.5-6.1,8.2-6.3,8.4l0,0c-0.1-0.3-2.7-6-6.3-8.4
		c-4.7-3.2-10.5-3.2-10.5-3.2H12.5L0,106.6h57.5c0,0,1.7,0,2.8,0.2c1.7,0.3,4.7,1.2,7.8,3.4c4.2,3.1,5.5,4.7,6.5,5.7
		c0.6,0.6,1.8,2.4,1.8,2.4h14.1h1.6l0,0H97h10.8c0,0,1.4-1.8,1.8-2.4c1-1.1,2.2-2.7,6.5-5.7c3.1-2.2,6.1-3.1,7.8-3.4
		c1-0.2,2.8-0.2,2.8-0.2h57.6L171.8,86.4z"/>
	<g>
		<g>
			<path class="st1" d="M6.3,112.8V207c0,0,0,1,0,1.3c0,1,0.1,2,0.2,2.8c1,10.1,4.2,17.6,10.1,27.4c9.3,15.4,25.9,26.1,25.9,26.1
				l7.9-12.6c0,0-10.7-5.7-19.3-18.8c-1.7-2.7-3.5-5-4.6-7.5c-1.1-2.3-1.9-4.2-2.6-6.1c-0.5-1.5-0.9-2.8-1.2-3.9
				c-0.5-1.7-0.6-3.1-0.7-4.8c0-0.6-0.1-2.9-0.1-2.9v-0.5v-94.7H6.3z"/>
			<path class="st1" d="M30.2,112.8V208c0,0,0,0.4,0.1,0.8c0,0.5,0.1,1.2,0.2,1.7c0,0.4,0.1,0.7,0.2,1c0.3,1.5,0.6,2.8,1.3,4.8
				c1.1,3.2,2.9,7.1,5.7,11.6c7.1,11.4,17.2,16.6,17.2,16.6l7.9-12.3c0,0-2.6-1.5-5.8-4.5c-2.1-2-4.6-4.7-6.8-7.9
				c-2.1-3.2-3.4-6.5-4.1-9c-0.6-2-0.7-3.7-0.7-4.8c0-0.8,0-1.4,0-1.4v-91.8H30.2z"/>
		</g>
		<g>
			<path class="st1" d="M178.1,112.8V207c0,0,0,1,0,1.3c0,1-0.1,2-0.2,2.8c-1,10.1-4.2,17.6-10.1,27.4
				c-9.3,15.4-25.9,26.1-25.9,26.1L134,252c0,0,10.7-5.7,19.3-18.8c1.7-2.7,3.5-5,4.6-7.5c1.1-2.3,1.9-4.2,2.6-6.1
				c0.5-1.5,0.9-2.8,1.2-3.9c0.5-1.7,0.6-3.1,0.7-4.8c0-0.6,0.1-2.9,0.1-2.9v-0.5v-94.7H178.1z"/>
			<path class="st1" d="M154.1,112.8V208c0,0,0,0.4-0.1,0.8c0,0.5-0.1,1.2-0.2,1.7c0,0.4-0.1,0.7-0.2,1c-0.3,1.5-0.6,2.8-1.3,4.8
				c-1.1,3.2-2.9,7.1-5.7,11.6c-7.1,11.4-17.2,16.6-17.2,16.6l-7.9-12.3c0,0,2.6-1.5,5.8-4.5c2.1-2,4.6-4.7,6.8-7.9
				c2.1-3.2,3.4-6.5,4.1-9c0.6-2,0.7-3.7,0.7-4.8c0-0.8,0-1.4,0-1.4v-91.8H154.1z"/>
		</g>
	</g>
</g>
</svg>
